<?xml version="1.0" standalone="no"?>
<!DOCTYPE svg PUBLIC "-//W3C//DTD SVG 20010904//EN"
 "http://www.w3.org/TR/2001/REC-SVG-20010904/DTD/svg10.dtd">
<svg version="1.0" xmlns="http://www.w3.org/2000/svg"
 width="1217.000000pt" height="1217.000000pt" viewBox="0 0 1217.000000 1217.000000"
 preserveAspectRatio="xMidYMid meet">
<metadata>
Created by potrace 1.11, written by Peter Selinger 2001-2013
</metadata>
<g transform="translate(0.000000,1217.000000) scale(0.100000,-0.100000)"
fill="#000000" stroke="none">
<path d="M6074 11945 c0 -19 3 -35 7 -35 8 0 6 56 -2 64 -3 3 -5 -10 -5 -29z"/>
<path d="M6070 11890 c0 -5 5 -10 10 -10 6 0 10 5 10 10 0 6 -4 10 -10 10 -5
0 -10 -4 -10 -10z"/>
<path d="M6069 11778 c-1 -101 -3 -219 -14 -608 -3 -140 -8 -325 -10 -410 -13
-510 -16 -612 -20 -770 -3 -96 -7 -267 -10 -380 -11 -425 -15 -590 -20 -765
-3 -99 -7 -274 -10 -390 -7 -292 -15 -598 -20 -805 -3 -96 -7 -272 -10 -390
-7 -269 -13 -517 -20 -775 -11 -434 -15 -588 -20 -785 -6 -255 -13 -539 -20
-780 -3 -102 -7 -275 -10 -385 -8 -360 -16 -620 -19 -623 -3 -2 -203 286 -428
618 -58 85 -168 246 -244 357 -77 110 -144 209 -151 220 -12 17 6 -36 97 -287
21 -58 59 -163 85 -235 26 -71 57 -157 70 -190 12 -33 35 -94 49 -136 15 -42
71 -197 125 -345 54 -148 98 -270 97 -270 0 -1 -21 -5 -46 -8 -25 -3 -56 -8
-70 -11 -14 -2 -61 -9 -106 -15 -44 -6 -89 -12 -100 -14 -33 -6 -97 -16 -134
-20 -48 -6 -132 -18 -150 -21 -21 -4 -88 -14 -130 -19 -19 -2 -98 -14 -175
-25 -77 -12 -171 -26 -210 -31 -38 -6 -86 -12 -105 -15 -19 -3 -48 -7 -65 -10
-16 -2 -79 -11 -140 -20 -60 -9 -134 -20 -162 -24 -29 -4 -56 -11 -60 -15 -5
-4 -1 -7 7 -5 13 2 102 -8 155 -17 10 -2 37 -6 60 -9 22 -3 69 -10 105 -15 36
-5 83 -12 105 -15 230 -32 322 -46 335 -50 8 -2 44 -7 80 -10 36 -4 68 -9 71
-11 4 -2 31 -6 60 -9 30 -3 79 -10 109 -15 30 -5 78 -12 105 -15 28 -3 73 -10
100 -15 28 -5 73 -12 100 -15 63 -8 113 -15 144 -20 13 -2 44 -7 68 -11 23 -3
43 -10 43 -15 0 -5 -42 -91 -94 -191 -51 -101 -153 -300 -226 -443 -73 -143
-173 -337 -221 -432 -49 -95 -89 -175 -89 -179 0 -3 17 12 38 34 33 36 259
273 367 387 22 23 110 115 196 206 86 90 191 200 233 244 l77 80 -6 -280 c-3
-154 -8 -338 -10 -410 -2 -71 -7 -247 -10 -390 -7 -277 -10 -365 -21 -790 -3
-148 -7 -301 -8 -340 -2 -80 -2 -79 -81 -38 -210 110 -467 275 -688 442 -905
680 -1491 1547 -1686 2491 -21 101 -26 132 -42 250 -6 41 -12 86 -14 99 -22
132 -22 638 0 796 2 17 9 68 15 115 10 80 13 99 25 160 2 14 7 41 10 60 17
110 78 365 122 510 102 337 232 658 408 1007 l92 182 -40 48 c-32 39 -147 182
-210 263 -52 66 -181 250 -259 370 -252 384 -438 738 -574 1088 -119 306 -206
624 -240 877 -2 17 -6 46 -9 66 -25 186 -24 562 1 693 2 11 6 36 9 56 5 32 41
204 50 240 2 8 19 62 38 120 147 444 415 824 815 1158 56 47 102 87 102 89 0
17 -480 -349 -595 -454 -11 -10 -61 -54 -110 -98 -620 -554 -1132 -1253 -1437
-1964 -83 -193 -212 -576 -233 -690 -9 -50 -14 -73 -20 -91 -3 -10 -8 -29 -10
-42 -3 -13 -9 -45 -15 -73 -14 -69 -16 -82 -26 -145 -4 -30 -8 -57 -9 -60 -1
-5 -12 -86 -20 -155 -4 -36 -15 -162 -20 -230 -5 -68 -5 -436 -1 -510 7 -101
16 -208 21 -245 3 -19 7 -55 10 -80 3 -25 7 -56 10 -70 2 -14 7 -43 10 -65 3
-23 8 -52 10 -65 3 -14 8 -41 11 -60 13 -85 69 -325 105 -454 144 -511 351
-992 651 -1511 42 -71 74 -131 73 -133 -2 -2 -25 20 -51 49 -27 29 -56 60 -66
70 -49 51 -240 286 -326 401 -336 452 -624 976 -771 1408 -18 52 -36 104 -41
115 -10 24 -59 199 -66 235 -3 14 -11 48 -19 75 -14 47 -50 238 -61 322 -3 21
-7 52 -9 68 -20 142 -26 485 -12 645 7 73 24 198 43 305 28 159 117 445 189
605 71 160 76 170 71 170 -2 0 -14 -17 -27 -37 -305 -509 -539 -1126 -654
-1723 -3 -14 -7 -34 -9 -45 -2 -11 -7 -42 -11 -70 -5 -27 -9 -52 -10 -55 0 -3
-5 -32 -9 -65 -4 -32 -10 -68 -12 -80 -2 -11 -7 -49 -10 -85 -3 -36 -8 -76
-10 -90 -26 -162 -25 -775 1 -985 2 -22 9 -76 15 -120 5 -44 12 -98 15 -120 2
-22 6 -49 9 -60 2 -11 7 -40 11 -65 55 -336 189 -787 340 -1140 185 -434 477
-938 752 -1295 82 -106 95 -125 87 -125 -13 0 -124 99 -213 189 -228 233 -436
522 -641 891 -112 200 -278 549 -350 735 -13 33 -26 65 -30 70 -4 6 -20 45
-35 88 -28 79 -41 99 -31 50 3 -16 8 -50 11 -78 3 -27 8 -57 10 -65 2 -8 7
-30 10 -47 13 -81 18 -106 45 -228 54 -242 142 -541 220 -755 17 -47 35 -96
40 -110 24 -73 153 -368 230 -525 102 -208 139 -275 241 -443 41 -68 79 -130
84 -140 66 -112 267 -386 404 -550 666 -801 1558 -1384 2571 -1682 41 -12 86
-26 100 -31 57 -20 428 -108 520 -124 19 -3 42 -8 50 -10 8 -2 31 -7 50 -10
19 -3 58 -10 85 -15 52 -10 101 -17 170 -26 22 -3 51 -7 65 -10 33 -5 172 -22
235 -28 28 -3 82 -8 120 -11 39 -4 84 -8 101 -10 176 -20 839 -26 1084 -11
208 13 192 12 380 31 47 5 215 25 245 30 17 2 64 9 105 16 41 6 84 12 95 14
11 2 31 5 45 8 21 4 59 11 225 43 46 8 249 55 298 69 28 7 88 23 132 35 343
92 748 249 1084 422 167 86 206 108 411 236 447 280 881 662 1216 1070 10 13
28 34 39 46 11 12 29 35 40 50 11 15 32 42 47 59 15 18 28 35 28 38 0 4 13 22
30 40 16 19 30 37 30 41 0 4 6 13 13 20 12 12 136 193 167 243 296 479 481
868 646 1360 55 164 132 428 148 505 3 14 7 34 10 45 27 109 52 237 72 365 8
52 16 100 19 107 2 6 1 14 -3 17 -3 4 -21 -33 -40 -81 -18 -49 -40 -101 -47
-118 -7 -16 -24 -57 -38 -90 -82 -202 -282 -603 -393 -787 -109 -183 -271
-421 -349 -517 -114 -140 -251 -283 -354 -371 -77 -66 -101 -77 -61 -29 72 87
278 377 330 464 13 22 27 42 30 45 11 8 162 265 226 385 240 444 414 896 520
1355 13 57 26 114 28 125 28 146 46 246 50 275 2 19 9 69 15 110 26 192 36
361 36 640 0 220 -8 411 -19 480 -3 14 -7 52 -10 85 -10 98 -16 149 -21 172
-3 12 -7 39 -10 60 -3 21 -7 49 -10 63 -3 14 -8 41 -11 60 -8 51 -50 242 -73
335 -120 484 -324 988 -558 1382 -37 62 -68 111 -70 109 -2 -1 14 -39 36 -82
86 -177 207 -532 224 -659 3 -22 8 -47 11 -55 10 -31 34 -203 43 -320 13 -158
6 -523 -11 -615 -2 -11 -7 -45 -11 -75 -6 -50 -31 -200 -41 -242 -2 -10 -6
-26 -8 -36 -2 -10 -12 -49 -21 -86 -9 -37 -18 -72 -19 -79 -12 -73 -145 -452
-202 -575 -13 -29 -24 -55 -24 -58 0 -11 -175 -356 -223 -441 -129 -227 -261
-427 -425 -648 -58 -77 -108 -142 -111 -145 -3 -3 -24 -27 -46 -55 -80 -101
-280 -325 -290 -325 -2 0 32 60 75 133 366 627 612 1244 744 1874 14 66 28
140 31 163 5 41 10 70 19 118 3 13 8 50 11 83 4 33 8 68 10 77 27 144 27 817
0 996 -2 12 -6 43 -10 69 -4 27 -8 58 -11 70 -2 11 -6 43 -9 70 -3 28 -8 53
-10 56 -2 4 -6 27 -10 51 -5 36 -44 210 -69 312 -33 130 -104 344 -171 513
-188 474 -478 961 -819 1375 -283 343 -625 683 -946 939 -52 41 -99 79 -105
83 -41 34 -165 124 -235 172 -86 58 -84 54 12 -25 564 -473 880 -1051 935
-1714 12 -152 6 -463 -11 -565 -3 -14 -7 -43 -11 -65 -5 -34 -17 -110 -30
-180 -7 -38 -43 -190 -64 -265 -41 -151 -134 -419 -186 -535 -7 -16 -21 -50
-32 -75 -31 -77 -182 -381 -236 -475 -201 -354 -417 -675 -646 -960 -58 -71
-111 -136 -117 -143 -11 -10 0 -38 56 -145 172 -329 323 -697 425 -1032 59
-193 118 -445 140 -590 2 -11 8 -49 14 -85 5 -36 13 -92 17 -125 3 -33 8 -67
9 -77 7 -35 18 -269 18 -378 2 -513 -95 -993 -294 -1460 -54 -127 -191 -385
-279 -525 -51 -82 -96 -152 -100 -155 -3 -3 -28 -36 -55 -75 -53 -75 -198
-258 -250 -315 -17 -19 -56 -62 -86 -95 -90 -99 -238 -243 -376 -367 -78 -71
-218 -184 -338 -274 -114 -85 -408 -284 -420 -284 -4 0 -25 -13 -48 -29 -47
-31 -238 -137 -265 -145 -14 -5 -17 2 -18 42 -1 47 -14 566 -19 757 -1 55 -6
226 -9 380 -4 154 -9 336 -11 405 -2 69 -7 251 -10 405 -3 153 -9 284 -12 290
-5 11 86 -83 311 -319 83 -87 169 -178 191 -201 72 -75 238 -250 328 -344 48
-51 87 -90 87 -87 0 3 -38 79 -84 168 -531 1035 -557 1088 -538 1089 9 0 26 2
37 4 11 2 40 7 65 10 25 3 56 8 70 10 14 2 61 9 105 15 44 6 91 13 105 15 52
8 317 46 355 51 22 3 81 12 130 19 50 8 108 16 130 19 22 3 51 7 65 10 23 5
186 28 290 41 25 4 70 10 100 15 58 10 146 22 167 23 7 0 10 4 8 7 -3 4 -48
13 -102 20 -54 6 -106 14 -117 16 -11 2 -38 6 -61 9 -22 4 -51 8 -65 10 -14 2
-47 6 -75 10 -27 3 -57 8 -65 10 -8 2 -36 7 -62 10 -53 6 -86 10 -214 30 -84
13 -147 22 -214 30 -14 2 -38 5 -55 8 -16 3 -79 13 -140 21 -105 15 -221 32
-275 40 -14 3 -64 10 -112 17 l-86 12 14 41 c8 23 18 50 23 61 5 11 14 34 19
50 6 17 56 155 112 307 55 153 115 319 134 370 132 370 189 526 197 543 5 11
14 36 19 55 9 34 9 34 -8 14 -9 -12 -52 -73 -94 -135 -74 -111 -117 -173 -303
-444 -49 -71 -118 -173 -154 -225 -35 -52 -88 -129 -116 -170 -29 -41 -71
-103 -95 -138 -23 -35 -44 -61 -46 -60 -2 2 -6 94 -9 203 -9 359 -22 847 -30
1185 -3 129 -8 307 -10 395 -3 88 -7 259 -10 380 -10 420 -24 947 -30 1185 -3
102 -7 282 -10 400 -6 225 -10 396 -20 745 -3 116 -7 302 -10 415 -3 113 -7
282 -10 375 -2 94 -7 276 -10 405 -3 129 -8 300 -10 380 -2 80 -7 264 -10 410
-4 146 -8 315 -10 375 -2 61 -6 241 -10 400 -4 160 -9 328 -10 375 -1 47 -3
140 -4 208 -1 145 -21 171 -22 30z"/>
<path d="M926 9083 c-6 -14 -5 -15 5 -6 7 7 10 15 7 18 -3 3 -9 -2 -12 -12z"/>
</g>
</svg>
